<?xml version="1.0" encoding="utf-8" standalone="no"?>
<!DOCTYPE svg PUBLIC "-//W3C//DTD SVG 1.1//EN"
  "http://www.w3.org/Graphics/SVG/1.1/DTD/svg11.dtd">
<svg xmlns:xlink="http://www.w3.org/1999/xlink" width="289.5pt" height="271.845937pt" viewBox="0 0 289.5 271.845937" xmlns="http://www.w3.org/2000/svg" version="1.1">
 <metadata>
  <rdf:RDF xmlns:dc="http://purl.org/dc/elements/1.1/" xmlns:cc="http://creativecommons.org/ns#" xmlns:rdf="http://www.w3.org/1999/02/22-rdf-syntax-ns#">
   <cc:Work>
    <dc:type rdf:resource="http://purl.org/dc/dcmitype/StillImage"/>
    <dc:date>2026-02-06T19:21:09.672986</dc:date>
    <dc:format>image/svg+xml</dc:format>
    <dc:creator>
     <cc:Agent>
      <dc:title>Matplotlib v3.9.3, https://matplotlib.org/</dc:title>
     </cc:Agent>
    </dc:creator>
   </cc:Work>
  </rdf:RDF>
 </metadata>
 <defs>
  <style type="text/css">*{stroke-linejoin: round; stroke-linecap: butt}</style>
 </defs>
 <g id="figure_1">
  <g id="patch_1">
   <path d="M 0 271.845937 
L 289.5 271.845937 
L 289.5 0 
L 0 0 
z
" style="fill: #ffffff"/>
  </g>
  <g id="axes_1">
   <g id="line2d_1">
    <path d="M 21.2 250.335937 
L 264.2 209.835937 
L 102.2 23.535937 
L 21.2 250.335937 
" clip-path="url(#pf5cc432b0a)" style="fill: none; stroke: #444444; stroke-width: 1.5; stroke-linecap: square"/>
   </g>
   <g id="line2d_2">
    <path d="M 142.7 230.085937 
L 131.318987 161.799862 
" clip-path="url(#pf5cc432b0a)" style="fill: none; stroke-dasharray: 1,1.65; stroke-dashoffset: 0; stroke: #888888"/>
   </g>
   <g id="line2d_3">
    <path d="M 61.7 136.935937 
L 131.318987 161.799862 
" clip-path="url(#pf5cc432b0a)" style="fill: none; stroke-dasharray: 1,1.65; stroke-dashoffset: 0; stroke: #888888"/>
   </g>
   <g id="patch_2">
    <path d="M 21.2 250.335937 
L 142.7 230.085937 
L 131.318987 161.799862 
L 61.7 136.935937 
z
" clip-path="url(#pf5cc432b0a)" style="fill: #c6dbef; opacity: 0.7; stroke: #2166ac; stroke-width: 1.5; stroke-linejoin: miter"/>
   </g>
   <g id="line2d_4">
    <path d="M 21.2 250.335937 
L 131.318987 161.799862 
" clip-path="url(#pf5cc432b0a)" style="fill: none; stroke-dasharray: 3.7,1.6; stroke-dashoffset: 0; stroke: #2166ac"/>
   </g>
   <g id="PathCollection_1">
    <path d="M 21.2 252.835937 
C 21.863008 252.835937 22.49895 252.572522 22.967767 252.103704 
C 23.436584 251.634887 23.7 250.998945 23.7 250.335937 
C 23.7 249.67293 23.436584 249.036988 22.967767 248.568171 
C 22.49895 248.099353 21.863008 247.835937 21.2 247.835937 
C 20.536992 247.835937 19.90105 248.099353 19.432233 248.568171 
C 18.963416 249.036988 18.7 249.67293 18.7 250.335937 
C 18.7 250.998945 18.963416 251.634887 19.432233 252.103704 
C 19.90105 252.572522 20.536992 252.835937 21.2 252.835937 
z
" clip-path="url(#pf5cc432b0a)"/>
   </g>
   <g id="PathCollection_2">
    <path d="M 264.2 212.335937 
C 264.863008 212.335937 265.49895 212.072522 265.967767 211.603704 
C 266.436584 211.134887 266.7 210.498945 266.7 209.835937 
C 266.7 209.17293 266.436584 208.536988 265.967767 208.068171 
C 265.49895 207.599353 264.863008 207.335937 264.2 207.335937 
C 263.536992 207.335937 262.90105 207.599353 262.432233 208.068171 
C 261.963416 208.536988 261.7 209.17293 261.7 209.835937 
C 261.7 210.498945 261.963416 211.134887 262.432233 211.603704 
C 262.90105 212.072522 263.536992 212.335937 264.2 212.335937 
z
" clip-path="url(#pf5cc432b0a)"/>
   </g>
   <g id="PathCollection_3">
    <path d="M 102.2 26.035937 
C 102.863008 26.035937 103.49895 25.772522 103.967767 25.303704 
C 104.436584 24.834887 104.7 24.198945 104.7 23.535937 
C 104.7 22.87293 104.436584 22.236988 103.967767 21.768171 
C 103.49895 21.299353 102.863008 21.035937 102.2 21.035937 
C 101.536992 21.035937 100.90105 21.299353 100.432233 21.768171 
C 99.963416 22.236988 99.7 22.87293 99.7 23.535937 
C 99.7 24.198945 99.963416 24.834887 100.432233 25.303704 
C 100.90105 25.772522 101.536992 26.035937 102.2 26.035937 
z
" clip-path="url(#pf5cc432b0a)"/>
   </g>
   <g id="PathCollection_4">
    <path d="M 142.7 232.585937 
C 143.363008 232.585937 143.99895 232.322522 144.467767 231.853704 
C 144.936584 231.384887 145.2 230.748945 145.2 230.085937 
C 145.2 229.42293 144.936584 228.786988 144.467767 228.318171 
C 143.99895 227.849353 143.363008 227.585937 142.7 227.585937 
C 142.036992 227.585937 141.40105 227.849353 140.932233 228.318171 
C 140.463416 228.786988 140.2 229.42293 140.2 230.085937 
C 140.2 230.748945 140.463416 231.384887 140.932233 231.853704 
C 141.40105 232.322522 142.036992 232.585937 142.7 232.585937 
z
" clip-path="url(#pf5cc432b0a)" style="fill: #555555"/>
   </g>
   <g id="PathCollection_5">
    <path d="M 61.7 139.435937 
C 62.363008 139.435937 62.99895 139.172522 63.467767 138.703704 
C 63.936584 138.234887 64.2 137.598945 64.2 136.935937 
C 64.2 136.27293 63.936584 135.636988 63.467767 135.168171 
C 62.99895 134.699353 62.363008 134.435937 61.7 134.435937 
C 61.036992 134.435937 60.40105 134.699353 59.932233 135.168171 
C 59.463416 135.636988 59.2 136.27293 59.2 136.935937 
C 59.2 137.598945 59.463416 138.234887 59.932233 138.703704 
C 60.40105 139.172522 61.036992 139.435937 61.7 139.435937 
z
" clip-path="url(#pf5cc432b0a)" style="fill: #555555"/>
   </g>
   <g id="PathCollection_6">
    <path d="M 131.318987 164.299862 
C 131.981995 164.299862 132.617937 164.036446 133.086754 163.567629 
C 133.555572 163.098811 133.818987 162.462869 133.818987 161.799862 
C 133.818987 161.136854 133.555572 160.500912 133.086754 160.032095 
C 132.617937 159.563277 131.981995 159.299862 131.318987 159.299862 
C 130.65598 159.299862 130.020038 159.563277 129.55122 160.032095 
C 129.082403 160.500912 128.818987 161.136854 128.818987 161.799862 
C 128.818987 162.462869 129.082403 163.098811 129.55122 163.567629 
C 130.020038 164.036446 130.65598 164.299862 131.318987 164.299862 
z
" clip-path="url(#pf5cc432b0a)" style="fill: #2166ac"/>
   </g>
   <g id="text_1">
    <!-- $p_k$ -->
    <g transform="translate(7.2 262.335937) scale(0.11 -0.11)">
     <defs>
      <path id="DejaVuSans-Oblique-70" d="M 3175 2156 
Q 3175 2616 2975 2859 
Q 2775 3103 2400 3103 
Q 2144 3103 1911 2972 
Q 1678 2841 1497 2591 
Q 1319 2344 1212 1994 
Q 1106 1644 1106 1300 
Q 1106 863 1306 627 
Q 1506 391 1875 391 
Q 2147 391 2380 519 
Q 2613 647 2778 891 
Q 2956 1147 3065 1494 
Q 3175 1841 3175 2156 
z
M 1394 2969 
Q 1625 3272 1939 3428 
Q 2253 3584 2638 3584 
Q 3175 3584 3472 3232 
Q 3769 2881 3769 2247 
Q 3769 1728 3584 1258 
Q 3400 788 3053 416 
Q 2822 169 2531 39 
Q 2241 -91 1919 -91 
Q 1547 -91 1294 64 
Q 1041 219 916 525 
L 556 -1331 
L -19 -1331 
L 922 3500 
L 1497 3500 
L 1394 2969 
z
" transform="scale(0.015625)"/>
      <path id="DejaVuSans-Oblique-6b" d="M 1172 4863 
L 1747 4863 
L 1197 2028 
L 3169 3500 
L 3916 3500 
L 1716 1825 
L 3322 0 
L 2625 0 
L 1131 1709 
L 800 0 
L 225 0 
L 1172 4863 
z
" transform="scale(0.015625)"/>
     </defs>
     <use xlink:href="#DejaVuSans-Oblique-70"/>
     <use xlink:href="#DejaVuSans-Oblique-6b" transform="translate(63.476562 -16.40625) scale(0.7)"/>
    </g>
   </g>
   <g id="text_2">
    <!-- $p_a$ -->
    <g transform="translate(270.2 215.835937) scale(0.11 -0.11)">
     <defs>
      <path id="DejaVuSans-Oblique-61" d="M 3438 1997 
L 3047 0 
L 2472 0 
L 2578 531 
Q 2325 219 2001 64 
Q 1678 -91 1281 -91 
Q 834 -91 548 182 
Q 263 456 263 884 
Q 263 1497 752 1853 
Q 1241 2209 2100 2209 
L 2900 2209 
L 2931 2363 
Q 2938 2388 2941 2417 
Q 2944 2447 2944 2509 
Q 2944 2788 2717 2942 
Q 2491 3097 2081 3097 
Q 1800 3097 1504 3025 
Q 1209 2953 897 2809 
L 997 3341 
Q 1322 3463 1633 3523 
Q 1944 3584 2234 3584 
Q 2853 3584 3176 3315 
Q 3500 3047 3500 2534 
Q 3500 2431 3484 2292 
Q 3469 2153 3438 1997 
z
M 2816 1759 
L 2241 1759 
Q 1534 1759 1195 1570 
Q 856 1381 856 984 
Q 856 709 1029 553 
Q 1203 397 1509 397 
Q 1978 397 2328 733 
Q 2678 1069 2791 1631 
L 2816 1759 
z
" transform="scale(0.015625)"/>
     </defs>
     <use xlink:href="#DejaVuSans-Oblique-70"/>
     <use xlink:href="#DejaVuSans-Oblique-61" transform="translate(63.476562 -16.40625) scale(0.7)"/>
    </g>
   </g>
   <g id="text_3">
    <!-- $p_b$ -->
    <g transform="translate(96.2 15.535937) scale(0.11 -0.11)">
     <defs>
      <path id="DejaVuSans-Oblique-62" d="M 3169 2138 
Q 3169 2591 2961 2847 
Q 2753 3103 2388 3103 
Q 2122 3103 1889 2973 
Q 1656 2844 1484 2597 
Q 1303 2338 1198 1995 
Q 1094 1653 1094 1313 
Q 1094 881 1298 636 
Q 1503 391 1863 391 
Q 2134 391 2365 517 
Q 2597 644 2772 891 
Q 2950 1147 3059 1487 
Q 3169 1828 3169 2138 
z
M 1381 2969 
Q 1594 3256 1914 3420 
Q 2234 3584 2584 3584 
Q 3122 3584 3439 3221 
Q 3756 2859 3756 2241 
Q 3756 1734 3570 1259 
Q 3384 784 3041 416 
Q 2816 172 2522 40 
Q 2228 -91 1906 -91 
Q 1566 -91 1316 65 
Q 1066 222 909 531 
L 806 0 
L 231 0 
L 1178 4863 
L 1753 4863 
L 1381 2969 
z
" transform="scale(0.015625)"/>
     </defs>
     <use xlink:href="#DejaVuSans-Oblique-70"/>
     <use xlink:href="#DejaVuSans-Oblique-62" transform="translate(63.476562 -16.40625) scale(0.7)"/>
    </g>
   </g>
   <g id="text_4">
    <!-- $m_a$ -->
    <g style="fill: #555555" transform="translate(148.7 238.085937) scale(0.11 -0.11)">
     <defs>
      <path id="DejaVuSans-Oblique-6d" d="M 5747 2113 
L 5338 0 
L 4763 0 
L 5166 2094 
Q 5191 2228 5203 2325 
Q 5216 2422 5216 2491 
Q 5216 2772 5059 2928 
Q 4903 3084 4622 3084 
Q 4203 3084 3875 2770 
Q 3547 2456 3450 1953 
L 3066 0 
L 2491 0 
L 2900 2094 
Q 2925 2209 2937 2307 
Q 2950 2406 2950 2484 
Q 2950 2769 2794 2926 
Q 2638 3084 2363 3084 
Q 1938 3084 1609 2770 
Q 1281 2456 1184 1953 
L 800 0 
L 225 0 
L 909 3500 
L 1484 3500 
L 1375 2956 
Q 1609 3263 1923 3423 
Q 2238 3584 2597 3584 
Q 2978 3584 3223 3384 
Q 3469 3184 3519 2828 
Q 3781 3197 4126 3390 
Q 4472 3584 4856 3584 
Q 5306 3584 5551 3325 
Q 5797 3066 5797 2591 
Q 5797 2488 5784 2364 
Q 5772 2241 5747 2113 
z
" transform="scale(0.015625)"/>
     </defs>
     <use xlink:href="#DejaVuSans-Oblique-6d"/>
     <use xlink:href="#DejaVuSans-Oblique-61" transform="translate(97.412109 -16.40625) scale(0.7)"/>
    </g>
   </g>
   <g id="text_5">
    <!-- $m_b$ -->
    <g style="fill: #555555" transform="translate(43.7 132.935937) scale(0.11 -0.11)">
     <use xlink:href="#DejaVuSans-Oblique-6d"/>
     <use xlink:href="#DejaVuSans-Oblique-62" transform="translate(97.412109 -16.40625) scale(0.7)"/>
    </g>
   </g>
   <g id="text_6">
    <!-- $c_T$ -->
    <g style="fill: #2166ac" transform="translate(137.318987 157.799862) scale(0.11 -0.11)">
     <defs>
      <path id="DejaVuSans-Oblique-63" d="M 3431 3366 
L 3316 2797 
Q 3109 2947 2876 3022 
Q 2644 3097 2394 3097 
Q 2119 3097 1870 3000 
Q 1622 2903 1453 2725 
Q 1184 2453 1037 2087 
Q 891 1722 891 1331 
Q 891 859 1127 628 
Q 1363 397 1844 397 
Q 2081 397 2348 469 
Q 2616 541 2906 684 
L 2797 116 
Q 2547 13 2283 -39 
Q 2019 -91 1741 -91 
Q 1044 -91 669 257 
Q 294 606 294 1253 
Q 294 1797 489 2255 
Q 684 2713 1069 3078 
Q 1331 3328 1684 3456 
Q 2038 3584 2456 3584 
Q 2700 3584 2940 3529 
Q 3181 3475 3431 3366 
z
" transform="scale(0.015625)"/>
      <path id="DejaVuSans-Oblique-54" d="M 378 4666 
L 4325 4666 
L 4225 4134 
L 2559 4134 
L 1759 0 
L 1125 0 
L 1925 4134 
L 275 4134 
L 378 4666 
z
" transform="scale(0.015625)"/>
     </defs>
     <use xlink:href="#DejaVuSans-Oblique-63"/>
     <use xlink:href="#DejaVuSans-Oblique-54" transform="translate(54.980469 -16.40625) scale(0.7)"/>
    </g>
   </g>
   <g id="text_7">
    <!-- $R(p_k, T)$ -->
    <g style="fill: #2166ac" transform="translate(74.879747 199.539419) scale(0.1 -0.1)">
     <defs>
      <path id="DejaVuSans-Oblique-52" d="M 1613 4147 
L 1294 2491 
L 2106 2491 
Q 2584 2491 2879 2755 
Q 3175 3019 3175 3444 
Q 3175 3784 2976 3965 
Q 2778 4147 2406 4147 
L 1613 4147 
z
M 2772 2241 
Q 2972 2194 3105 2009 
Q 3238 1825 3413 1275 
L 3809 0 
L 3144 0 
L 2778 1197 
Q 2638 1659 2453 1815 
Q 2269 1972 1888 1972 
L 1191 1972 
L 806 0 
L 172 0 
L 1081 4666 
L 2503 4666 
Q 3150 4666 3495 4373 
Q 3841 4081 3841 3531 
Q 3841 3044 3547 2687 
Q 3253 2331 2772 2241 
z
" transform="scale(0.015625)"/>
      <path id="DejaVuSans-28" d="M 1984 4856 
Q 1566 4138 1362 3434 
Q 1159 2731 1159 2009 
Q 1159 1288 1364 580 
Q 1569 -128 1984 -844 
L 1484 -844 
Q 1016 -109 783 600 
Q 550 1309 550 2009 
Q 550 2706 781 3412 
Q 1013 4119 1484 4856 
L 1984 4856 
z
" transform="scale(0.015625)"/>
      <path id="DejaVuSans-2c" d="M 750 794 
L 1409 794 
L 1409 256 
L 897 -744 
L 494 -744 
L 750 256 
L 750 794 
z
" transform="scale(0.015625)"/>
      <path id="DejaVuSans-29" d="M 513 4856 
L 1013 4856 
Q 1481 4119 1714 3412 
Q 1947 2706 1947 2009 
Q 1947 1309 1714 600 
Q 1481 -109 1013 -844 
L 513 -844 
Q 928 -128 1133 580 
Q 1338 1288 1338 2009 
Q 1338 2731 1133 3434 
Q 928 4138 513 4856 
z
" transform="scale(0.015625)"/>
     </defs>
     <use xlink:href="#DejaVuSans-Oblique-52" transform="translate(0 0.125)"/>
     <use xlink:href="#DejaVuSans-28" transform="translate(69.482422 0.125)"/>
     <use xlink:href="#DejaVuSans-Oblique-70" transform="translate(108.496094 0.125)"/>
     <use xlink:href="#DejaVuSans-Oblique-6b" transform="translate(171.972656 -16.28125) scale(0.7)"/>
     <use xlink:href="#DejaVuSans-2c" transform="translate(215.244141 0.125)"/>
     <use xlink:href="#DejaVuSans-Oblique-54" transform="translate(266.513672 0.125)"/>
     <use xlink:href="#DejaVuSans-29" transform="translate(327.597656 0.125)"/>
    </g>
   </g>
  </g>
 </g>
 <defs>
  <clipPath id="pf5cc432b0a">
   <rect x="9.05" y="12.195937" width="267.3" height="249.48"/>
  </clipPath>
 </defs>
</svg>
